<?xml version="1.0"?><svg version="1.2" baseProfile="tiny-ps" viewBox="0 0 300 300" xmlns="http://www.w3.org/2000/svg" xmlns:xlink="http://www.w3.org/1999/xlink"><title>Alexander Konietzko</title><g><g fill="#e2d3c7" transform="matrix(.1 0 0 -.1 0 300)"><path d="M1355 2994c-130-19-235-41-323-70l-104-34-117-60-117-61-90-67c-113-85-221-193-307-307l-67-90-65-127-64-126-30-99c-17-54-38-138-48-188l-17-90v-350l17-90c10-49 31-134 48-188l30-99 64-126 65-127 67-90c86-114 194-222 308-308l90-67 127-65 126-64 99-30c54-17 139-38 188-48l90-17h350l90 17c50 10 134 31 188 48l99 30 126 64 127 65 90 67c114 86 222 194 308 308l67 90 65 127 64 126 30 99c17 54 38 139 48 188l17 90v350l-17 90c-10 50-31 134-48 188l-30 99-64 126-65 127-67 90c-86 114-194 222-307 307l-90 67-116 60-115 60-94 31c-52 18-137 40-190 51l-96 19-155 4c-85 3-168 2-185 0z"/></g><g fill="#b49a8a" transform="matrix(.1 0 0 -.1 0 300)"><path d="M1355 2994c-130-19-235-41-323-70l-104-34-117-60-117-61-90-67c-113-85-221-193-307-307l-67-90-65-127-64-126-30-99c-17-54-38-138-48-188l-17-90v-350l17-90c10-49 31-134 48-188l30-99 64-126 65-127 67-90c86-114 194-222 308-308l90-67 127-65 126-64 99-30c54-17 139-38 188-48l90-17h350l90 17c50 10 134 31 188 48l99 30 126 64 127 65 90 67c114 86 222 194 308 308l67 90 65 127 64 126 30 99c17 54 38 139 48 188l17 90v350l-17 90c-10 50-31 134-48 188l-30 99-64 126-65 127-67 90c-86 114-194 222-307 307l-90 67-116 60-115 60-94 31c-52 18-137 40-190 51l-96 19-155 4c-85 3-168 2-185 0zm430-854 6-10h-32l6 10c3 6 8 10 10 10s7-4 10-10zm20-20-6-10h31l6-25c3-14 10-25 15-25s8-3 7-7c-4-14 12-128 20-139 10-15 68-45 75-38 3 3 12-7 20-23l14-28 6-82c6-87 24-163 39-163 4 0 8 6 8 14 0 16 27 29 41 20 5-3 9-16 9-29v-25l-25-16-25-16v-28h30l12 20 13 20h34l16 30c8 16 15 35 15 43v14l-40 27c-22 14-40 29-40 32 0 2 9 14 20 26 10 11 22 34 25 49 4 16 11 32 17 35l10 7 9-14 9-14v-135h19l5 33c3 17 8 46 10 62 2 17 3 3 1-30l-3-60-35-114-35-114-24-23-23-24-30 8-30 8-10 20-10 20 1-300 1-301 13-75 12-74-6-43c-3-24-12-56-21-72-27-53-162-172-225-198l-25-10-30 13-30 13 14 1c8 0 12 3 9 6-4 3-15 1-26-5l-20-11-31 16-31 15v14c0 7-4 15-9 17l-9 3-7 50c-3 28-8 69-10 93-3 24-9 50-14 59l-9 16 8 28c5 15 6 30 3 33-3 2 5 2 18-1l22-6-5 21-6 21 14 5c8 3 14 12 14 20v15l33 18 32 17-23 4-23 4-6 14c-3 8-11 14-19 14s-14 5-14 10c0 6-6 10-14 10h-14l-19 33c-11 18-22 45-25 60l-5 27h7c4 0 11 7 14 16l6 17-13 21-14 21 1 35c2 43 11 59 42 70 13 5 24 13 23 17-1 5-1 14 0 21l1 12h29c17 0 32-4 35-8l5-9 30 5 29 4 12-22 12-22-7-25-6-24 22 3 22 3 19 25 18 25 6 50 6 50-21 38c-11 21-21 45-21 55 0 9-16 39-35 66l-35 50 8 5c16 11 42 56 42 72v17l-31 30-31 30 11 21 11 20 38 6c20 4 45 9 55 12l18 5-4 11-4 12-14-3c-7-2-28-1-46 3l-33 6v21l23-5c12-2 30-8 40-12l17-7v22l-51 26c-55 27-57 32-13 40 16 3 33 9 39 14s25 10 42 12l32 2-5 8c-3 4-14 8-25 8h-20l-5 14-6 15-12-5-13-5-13 16-12 15h-79l-45-20-44-21-47-3-46-4-13-16-12-17-6 17c-10 26-7 32 20 38 15 4 24 10 21 13-8 8 82 93 99 93 7 0 17 7 22 16l9 17 19 2c11 1 26 5 35 9l15 7-4 29-4 29 33 5c19 3 45 7 59 9 14 3 26 5 28 6 2 0 0-3-3-9zm-368-254v-14l-15 5-14 6 14 8c7 5 13 9 14 9 0 0 1-6 1-14zm760-88-5-13-1 19c-1 11 2 17 5 13 3-3 4-12 1-19zm-701-11 9-2-3-32-4-33h32v-56l31-30c17-16 37-41 45-56l14-27-25-17-25-17 8-11c5-6 8-22 8-36l-1-25-20 2c-11 1-34 5-51 9l-32 6-7-12-7-12 10-10 9-9 64-3 64-2-2-25-2-24 5 13c7 16 24 16 24-1v-13l31-18 30-18-3-26-3-27-60-3c-32-2-69-1-80 2l-21 5-29 61-29 60h-34l-4 40-4 40 9 16 9 15-14 32-15 32 2 70 2 70-10 22-10 22 14 17c7 9 22 20 34 24l20 7 6-9c3-5 10-10 15-11z"/></g><g fill="#906d4a" transform="matrix(.1 0 0 -.1 0 300)"><path d="M1355 2994c-130-19-235-41-323-70l-104-34-117-60-117-61-90-67c-113-85-221-193-307-307l-67-90-65-127-64-126-30-99c-17-54-38-138-48-188l-17-90v-350l17-90c10-49 31-134 48-188l30-99 64-126 65-127 67-90c86-114 194-222 308-308l90-67 127-65 126-64 99-30c54-17 139-38 188-48l90-17h350l90 17c50 10 134 31 188 48l99 30 126 64 127 65 90 67c114 86 222 194 308 308l67 90 65 127 64 126 30 99c17 54 38 139 48 188l17 90v350l-17 90c-10 50-31 134-48 188l-30 99-64 126-65 127-67 90c-86 114-194 222-307 307l-90 67-116 60-115 60-94 31c-52 18-137 40-190 51l-96 19-155 4c-85 3-168 2-185 0zm425-284c0-5-2-10-4-10-3 0-8 5-11 10l-6 10h10c6 0 11-4 11-10zm102-55 5-24-8 5c-9 5-13 44-5 44 2 0 6-11 8-25zm-102-364c0-6-4-12-8-15l-9-5v14c0 8 4 15 9 15 4 0 8-4 8-9zm380-17c0-2-7-4-15-4s-15 4-15 10v9l15-5c8-4 15-8 15-10zm-335-100c17-2 39-6 50-8l20-3-1-11c-1-7-2-20-3-29l-1-18-10 15-10 15v-35h22l-6-15-5-15h8c5 0 11-10 14-21l6-22-15-14-14-14 1-42 2-42 4 25c3 14 9 29 13 34l9 9 16-13 16-13-5-14-6-14 9 5 9 6 6-17 7-16-13-9-13-8h42l13-45c7-24 12-57 12-72 0-16 4-43 10-62l10-33 23 25c24 25 26 41 11 66l-9 14 14-5 14-5 3-21c4-29 16-28 30 3 14 30 16 46 3 27l-8-14-5 26c-3 14-2 25 1 24 3 0 14 0 24 1l17 1v30h14c8 0 21-7 29-15l15-15 11-49 11-50-9-43c-12-62-61-229-76-258-7-14-22-33-34-44l-20-18-30 4-29 4-7-93-7-94 5-212 5-212 17-55 17-55-16-50c-8-28-29-71-44-96l-29-45-66-58c-36-32-89-76-117-97l-52-39h-77l-5-9-6-9-87 2c-49 2-97 6-108 10s-30 12-42 16l-22 9-7 26c-3 14-9 25-14 25-4 0-17 20-30 44l-22 44 6 10 6 11-10 6-10 6 6 23 6 23-24 19c-13 11-27 27-31 37l-6 17 6 16 6 16 13-23c7-13 13-32 14-41v-18l23 3 22 2-3-12-2-13h23l-6-6-6-7 34-27c19-15 32-30 28-33-3-4 0-13 7-22l13-15-19 7-18 7 14-15 14-15 20 1 20 2 4 12 4 13-13 9-14 9h25v39l22 15 22 16-19 1h-20l20 9c11 5 16 9 11 9-6 1-2 7 8 14l17 13-12 27-12 27-19 6-18 5 5 10 6 9-14 6-15 5-7 32c-12 50-12 51 3 70l15 17h65l11 14c7 8 26 18 42 21l29 7-6 9c-3 5-9 7-14 4-4-3-13 2-20 10l-12 15h-53l15 10c8 5 12 11 9 14s-15-1-27-10l-21-15 6-15 6-16-22 11c-12 7-25 20-28 29-4 9-15 23-25 30l-18 13v39h-35l14 9c8 5 21 7 30 4l16-5-18 12-17 11-10-6-10-6v10c0 6 5 11 11 11h10l-6 10c-3 5-7 25-9 45l-2 35h12c6 0 15 8 19 17l6 18-10 3c-30 10 9 76 41 71 7-1 28 4 46 11l33 12-4 12-4 11 31 12 31 11-55-5-55-5 15 11 15 11h-74l-15 16-16 15 4 17c2 9 7 28 11 40l8 24 28-6 28-5-5 14c-3 8-10 13-14 12s-19 14-32 34l-25 35 7 20c4 10 7 70 6 132l-1 113-17 10-17 10 5 13 5 13-58 39c-32 21-59 42-61 47-2 4-19 7-37 7h-33l-5 14-6 14 25 17c14 9 23 19 20 22-6 6 7 19 54 53l35 24 35 1c19 1 45 7 58 13l22 13v-8c0-4 4-2 9 5l8 13 14-13c8-7 23-14 34-15l20-2 43 21c23 12 42 25 42 30v8l-27-6-28-7 32 35 33 34-29 2-30 2-4-22-4-23-2 33-1 32-11-2-11-3-6 15-5 15 8-7 8-8 14 11 13 11v-22h30v-22l30 5 29 6 11-17 11-17-6 23-6 22h11c6 0 18 7 27 16l16 15 14-5 14-6 6 16 5 15 32-6c17-3 45-8 61-11zm341-30c-19-19-21-11-4 16l13 20 3-10c2-5-4-17-12-26zm-45 2c11 6 11 2 2-22l-6-18-7 20-7 19-16-30c-9-17-16-26-17-22 0 4 7 22 17 40l16 32 4-13 5-12 9 6zm26-48-5-13-1 19c-1 11 2 17 5 13 3-3 4-12 1-19zm44 5-13-5 12-8 12-7-16-6-16-6v39l18-1 17-1-14-5zm-52-49c-15-18-22-13-13 10l6 16 10-6 9-6-12-14zm-1043-698c9-3 19-4 22-2 4 2 7-9 7-24l1-28-24 2c-28 3-40 18-36 49 4 38 6 43 11 25 2-9 11-19 19-22zm134-787v-10l-10 6c-5 3-10 11-10 16v10l10-6c6-3 10-11 10-16zm371 1301c-47-16-91-36-99-44l-14-14 30-7 31-6 100 22c56 13 101 26 101 29 0 4-11 13-25 20s-25 17-25 22c0 11-5 10-99-22zm-31-107c-8-3-20-12-27-20l-12-15 12-21c21-37 50-67 64-67h14l-5 9-6 9 28 4c53 9 85 25 77 38-2 3 0 12 4 19l8 12 16-15c17-17 37-21 37-7 0 4-25 16-55 26l-55 17 6 9 5 9-48-1c-26 0-55-3-63-6zm140-43c0-5-4-10-10-10-5 0-10 5-10 10 0 6 5 10 10 10 6 0 10-4 10-10zm-90-20c0-5-2-10-4-10-3 0-8 5-11 10l-6 10h10c6 0 11-4 11-10zm-139-274-12-14 41-4 40-4v8c0 8-34 28-48 28-5 0-15-6-21-14zm-31-109v-15l15-6 15-5v8c0 5-7 14-15 21l-15 12v-15zm293-17 4-15-23-17c-12-10-32-18-43-18h-21v-22l34 6 34 6 20-32 21-32 12 27 12 26-14 17c-8 9-20 29-26 43-7 14-12 19-10 11z"/></g><g fill="#745436" transform="matrix(.1 0 0 -.1 0 300)"><path d="M1355 2993c-188-22-366-73-516-148l-94-47-20-24-20-25-39-13-38-13-94-78-94-77-77-92c-178-212-290-446-339-711L5 1665v-170l1-170 17-90c10-49 31-134 48-188l30-99 64-126 65-127 67-90c86-114 194-222 308-308l90-67 127-65 126-64 99-30c54-17 139-38 188-48l90-17h350l90 17c50 10 134 31 188 48l99 30 126 64 127 65 76 57c42 32 96 75 119 95l44 38h-15c-8 0-70 24-138 53l-123 53-14 32-13 32h20c11 0 58-10 105-21l84-22 31-38c17-22 35-39 41-39 5 0 17-7 26-16l16-16 38 43c50 57 160 201 156 204-2 1-43 5-93 8-89 6-174 17-270 37-27 5-67 12-87 15l-38 6v19h81l6 15 5 16-17 19-18 20h-47l-6 25c-3 14-10 25-15 25-17 0-9 17 13 27l22 9-55 19-54 18-64-1-64-2-13 10-12 11-4-31-5-30h57v-10c0-5-6-10-14-10h-14l-5-20-5-20 8 5 9 6 11-20 10-20-27 14-28 15-3-46-3-45 15-54c9-29 16-70 16-91v-39l-27-52-26-53-51-52c-28-29-89-87-134-129l-83-77-93-7-93-7-69 28c-38 15-87 39-108 53l-39 26-42 65c-23 36-70 98-103 139l-61 75-6 40c-4 23-4 79-1 126s6 96 6 110 7 34 15 44l15 20 37-44c21-24 44-57 51-74s22-41 34-53l21-22 8 5 9 5v-22l38 5c20 2 55 12 77 21l39 17-39 24c-35 21-66 30-79 22-2-2-14 8-26 22s-18 18-14 10l7-15-27 28-27 27-9-5-9-5-5 18c-4 10-18 30-33 43l-26 24-4-12-5-13-36 48c-39 51-93 162-113 232-7 25-16 50-20 55-4 6-10 27-14 48l-7 37h-20l5-20 5-20-10-6-10-6-9 9c-11 11-31 114-24 121 3 3 17-5 31-19l26-24-7 34c-9 41-9 252 0 279l6 20 32 15 32 15 67 1 66 2 7-11 7-11-6-7c-4-3-28-7-54-9s-60-5-77-7c-16-3-33-5-36-5-4-1-2-19 3-41l10-40 32-1c17-1 45-3 61-5 17-2 45-4 63-4l32-2v-18c0-11-4-22-10-25-5-3-10-10-10-15v-9l18 5 17 6-14-10-14-10-14 5-13 5v-21l-13 5-13 4-19-14-20-15 35-14 35-15 27 20c16 10 28 16 28 11 0-4 4-2 8 4l8 12 37 6 37 6v-30l-44-35-43-36 5-25 4-26 39-19c41-21 69-26 69-11v9l32-5 32-5-37 37c-20 20-37 41-37 46s-9 0-20-11c-20-20-40-26-40-12 0 4 18 23 40 42l40 35v22c0 12 4 33 10 47l9 25-10 6-10 7 2 31c1 18 1 40 0 49l-1 18-47 46c-27 26-47 50-46 55l3 8-38 10c-20 5-62 15-92 22s-61 17-67 22l-13 9-35-21-35-20v34l-9-14-9-14-10 7-10 6 2 33 1 32 12-2c6-1 17 4 23 12l12 15h-27l30 18c17 10 62 28 100 41l70 23 45 43 45 43 13-5 14-5-10 19-11 19 17 10 17 11 40-2 39-2 18 21 18 21 19-23 19-22 5 12 5 13 1-12 1-13h31l-6 10-6 10h62l6-16 6-16 8 14 9 13v-25h55l-15 11-15 10 25-3 25-2 38 19c22 10 41 24 44 31l5 13 13-5 13-5 7 10 6 11 24-16 23-15 6 10 7 10 38-14 39-13 8 6 7 7-6-17-6-18h16l-8-47-7-48 14-16 14-15-13-13-12-12 18 6 17 7v-24l-25 4-25 5v-8c0-5 4-9 8-9 5 0 14-11 20-24l10-23 22-6 21-5 6 14 5 14-12 15-12 15-11-7-10-6 7 12 8 12 19-17 19-17v-61l21-22 21-22-5-24-4-23-12 32-13 32-12-5-13-5 5-24c2-13 12-31 22-40l19-17 20 7c21 6 29 25 12 25h-10l2 19 1 20 8-5 8-5v15c0 8 7 22 16 31l17 16 8-13c5-7 9-9 9-5 0 12 25-15 33-36l7-19 12 4c6 2 13 15 15 28 5 34 11 36 22 9l10-24v22c1 12 8 28 16 36l14 15-14 12c-8 7-15 19-15 27v15l-15-12-15-13 14 27 14 27-6 21-5 20-11-20-11-21-18 11-18 10-19-21-18-22-15 15-14 15-10-10-10-10-12 45-11 45-17 10-18 10 21 23c11 13 24 30 29 38 6 9-1 3-15-12-29-32-35-34-44-12l-6 16 31 31 32 31-14 5-13 4-14-22c-8-11-19-21-24-21h-10l5 20 5 20h-38v15c0 8-5 15-10 15h-11l18 24 18 24 12-9 11-10 4 13 5 13-16 13-16 13 13-6 13-7-3 13c-2 14 15 39 58 84l20 22-4 11-4 12h23l-10 19-10 18 7 8 7 7-19-4-19-3-3 18-2 19 14-6 14-5v31l16-6c9-3 18-6 20-6 3 0 2-16-2-35l-6-35h42v-30l103 3 102 2v40l-100 49c-55 27-104 55-108 63-17 28-50 51-122 86l-74 37-17-7-17-6 7 11 6 11-11 6c-17 11-21-1-14-35l7-31 25-10 24-9-7-11-6-11-7 8c-3 5-11 10-16 11l-11 2-1-27c0-15-2-37-4-48l-3-22-19-12-20-12 7 17 6 17-16-6-15-6 6 20 6 20h-18l5 25 4 25h20l-13 17-14 17 11-7 12-7v49l-25 17-25 16-42 3-41 3 3 36 4 36h-22v19c0 23 17 37 55 44l30 5 28-15 28-14 32 7c18 4 36 7 41 5 6-1 20 0 33 4l24 6-5 8c-6 9-81 31-126 37-14 2-47 8-75 14-132 27-308 37-420 23zm-33-110c6-24-1-53-13-53h-9v70h9c5 0 11-8 13-17zm262 4 19-14-5-13-4-14-52-2-52-3-22 9-23 9 39-4 38-4-5 20-5 19 7-4c4-3 13-1 21 5 20 12 23 11 44-4zm-134-7c0-5-5-10-11-10h-10l6 10c3 6 8 10 11 10 2 0 4-4 4-10zm-185-66 26-26-4-11c-2-6-11-15-20-21l-18-11-9 15c-5 8-10 12-10 8 0-5-8 0-18 10-19 18-25 42-10 42h9l-6 10-6 10h40l26-26zm285 6c-20-13-40-13-40 0v9l14-5 14-5 7 11c4 6 10 9 13 5 4-3 0-10-8-15zm-551-8 10-19-5-20-6-21-21-6c-36-10-46-7-58 15l-11 22 28 23c33 29 50 30 63 6zm741-63c0-5 7-9 16-9h16l19-22 18-23 1-23v-23l10 6 10 6v-23l-30 7-30 7v-10c0-6 6-12 13-15 6-2 10-7 7-10s-18 1-35 9c-16 8-22 12-12 9l17-4v8c0 5-7 11-15 15l-14 5-16-22-15-21v17c0 9 4 17 9 17s12 8 15 17l7 16-12 11-12 11 8-15 8-15-20 18-21 19-4-17-3-17-20 22-20 22 38-6 38-6-4 29-5 29 19-5c10-3 19-9 19-14zm227-125c-3-3-12-4-19-1l-13 5 19 1c11 1 17-2 13-5zm-152-14-6-10h10c6 0 11-5 11-11v-11l-15 12-15 12 6 9c3 5 7 9 10 9s2-4-1-10zm112-11-6-21 20 5 20 5-4-11-4-12h-25l-26-1 4 13c11 38 14 43 20 43 3 0 4-9 1-21zm123 6c0-8-3-15-7-16-5 0-16-2-26-4l-19-4 19 19c22 23 33 25 33 5zm101-64c-7-5-17-14-21-21l-7-12-6 17-7 16 9-6 10-5 6 10c3 5 12 10 18 10h12l-14-9zm-620-28 14-18-17 14c-10 7-18 15-18 17 0 8 8 3 21-13zm-15-30c-7-7-26 7-26 19v10l15-12c9-7 13-15 11-17zm124-3c0-11-28-6-41 7l-11 11 26-5c14-3 26-9 26-13zm307-90c2-2 8 2 13 10l10 15v-22c0-27-3-28-35-7l-25 16 6 10 6 9-13 15c-7 9-14 26-16 37l-2 22 26-50c14-27 27-52 30-55zm-133 61c11-4 20-14 22-22 1-8 5-27 9-44l7-30-16 22c-9 12-15 28-14 34l3 13-12 1c-7 0-13 4-12 9 0 5-5 13-13 17l-13 9 10-1c6 0 19-4 29-8zm13-112 2-24-8 25-9 25-1-18-1-18-11 7-11 6 10-19 11-20-5-21-6-21-14 6-14 5v-36l-14 19-14 19 7 16c10 28 55 79 66 76 6-1 11-13 12-27zm-302-29 6-10h-10c-5 0-13 5-16 10l-6 10h10c5 0 13-4 16-10zm135-85c19 1 41-3 48-8l12-10-11-13-11-14h-35c-19 0-43 5-54 10l-19 11v18c0 10 3 21 7 25l7 7 11-13 10-13h35zm-410-85c0-5-5-10-11-10h-10l6 10c3 6 8 10 11 10 2 0 4-4 4-10zm-16-35c-7-16-24-21-24-6 0 8 7 13 27 20 1 1 0-6-3-14zm726-20 12-15h-10c-5 0-12 7-16 15-3 8-4 15-2 15s9-7 16-15zm-810-425c0-5-7-10-16-10h-15l6 10c3 6 10 10 16 10 5 0 9-4 9-10zm-252-105-1-45h-9c-9 0-10 35-2 68 9 33 12 27 12-23zm367 35c-3-5-14-10-23-10h-17l15 10c8 5 19 10 23 10h8l-6-10zm-350-130 6-10h-10c-6 0-11 5-11 10 0 6 2 10 4 10 3 0 8-4 11-10zm919 1318-7-11 11 7 12 7v-28h30v37h-19c-11 0-23-5-27-12zm655-257-32-15 21-9 21-9 38 7c42 9 41 9 67-1l20-8-17 24-16 23-35 2-35 2-32-16zm-426-108-23-4v-31l15 12 15 12v-34l18 13 17 13-12-14-13-14 13-14 12-15-22 12-23 12v-76l10 15 10 15v-36l14 13c8 7 14 15 13 18s3 16 7 30l9 25 8-20 8-20-1 46-2 45-25 1c-14 0-36-2-48-4zm-36-70c-4-3-7-11-7-17v-10l12 12c6 6 9 14 7 17-3 3-9 2-12-2zm148-30-7-28 25-20c14-11 28-30 31-42l7-21-21 5-20 5v-24c0-13 5-29 12-36l12-12 13 11 13 11v-53l15-5 15-6-5-8c-3-5-1-11 4-14l9-6 5 19 5 20-14 5-14 5v37l20 1 20 2-4-8-5-8 32-10c18-5 59-11 93-12 33-1 85-9 115-17 30-9 75-19 101-23l47-7 19-17 19-17 58 11 59 11 28-6 28-5v9c0 14-88 189-113 224l-20 29-101-8c-56-4-153-8-216-9l-115-2-14 13-13 14-15-13-15-12 11-4c6-2 11-8 11-13v-10l-11 6c-6 4-14 17-19 29l-9 21v-24l-1-24-20 18c-11 10-20 24-20 32v13h-28l-7-27zm-120-53-6-10h15c9 0 16 5 16 10 0 6-4 10-9 10-6 0-13-4-16-10zm61-7-7-18 12 12c7 7 10 15 7 18s-9-2-12-12zm-26-33c0-5 5-10 11-10h10l-6 10c-3 6-8 10-11 10-2 0-4-4-4-10zm-4-39-17-19 8-5 8-5 12 24c13 29 11 30-11 5zm-5-88c0-6-4-20-7-30l-7-18 12 11 13 12-5 18c-3 11-5 14-6 7zm-600-42-13-30 6-9 6-10 42 11 41 10-22 9-23 8 11 14 12 14-18-2c-10-2-21 1-24 6l-6 9-12-30zm629-168c-9-2-21-12-28-23l-12-20h10c5 0 10 4 10 8s10 8 21 9c12 1 26 6 31 11l9 9-13 5c-7 2-20 3-28 1zm-502-18c-26-7-55-20-64-30l-17-17 12-8 13-7 32 8c17 4 51 13 75 19l45 12-17 10-17 9 5 10 6 9-13-1c-7 0-34-7-60-14zm1070-2c-2-10-2-25-1-34l4-17 40-6 41-7 33 7 33 6-5 19c-3 10-9 19-14 19s-9 6-9 14v13l-59 2-59 2-4-18zm-1073-103c-12-4-27-16-35-26l-15-18 13 8 12 7v-7c0-4-7-16-17-26l-16-18h54l-5 9-6 9 14 11 14 12 7-20 6-21h24c13 0 30 3 39 6l16 6-6 9-5 9-10-5-9-6 7 16 6 17 21-5c12-2 30-8 41-11l20-7-25 14c-14 8-44 18-67 22l-43 7v9c0 11-8 11-35-1zm55-60c0-5-2-10-4-10-3 0-8 5-11 10l-6 10h10c6 0 11-4 11-10zm1053-1c-5-5-42-12-83-15-41-4-77-8-79-10s67-4 153-4h158l-5 13-4 12-34-2c-19-1-48 2-66 6l-31 9-9-9zm-1233-279v-10h61l-6 10c-3 6-17 10-31 10h-24v-10zm556-194c-4-20-4-45-1-55l5-18 38-11 37-11 125-7c69-3 135-6 148-6 12 1 52 2 90 2l67 2 18 19c9 10 17 27 17 37v19l-37 5c-21 2-64 4-95 4-32-1-58 2-58 5 0 4-10 7-22 7-13 0-45 5-73 11-27 7-70 14-95 16-25 3-70 8-101 11l-56 6-7-36zm-366 20c0-2 18-6 40-8l40-4v16h-40c-22 0-40-2-40-4zm-361-21c-4-3-28-8-53-10s-50-6-55-9l-9-6 5-21 6-20 14 5 14 6 22-15 22-14 68 11 67 11-5 19-6 18h25c14 0 27 3 29 8l5 7-21 2c-12 1-44 5-72 8l-50 7-6-7zm1209-122c7-3 16-2 19 1 4 3-2 6-13 5l-19-1 13-5zm-1-70-17-20 5-14 5-14h155l25 17 24 18-9 9-10 9-80 7-80 7-18-19zM1500 790v-10h18c9 0 24 5 32 10l15 10h-65v-10z"/></g><g fill="#57412a" transform="matrix(.1 0 0 -.1 0 300)"><path d="m1354 2830-40-22-28-44-29-45-14 5c-8 3-17 6-19 6-3 0-2 5 1 10l6 10h-50l-45-27-46-28 3-14 2-14-14-5-14-5 8 12 7 12-20-12c-12-7-19-16-17-20 3-3-15-3-38 2-23 4-46 8-50 9h-8l5-9 6-9-15-6c-9-3-20-17-25-31s-13-25-17-24c-5 1-10 1-13 0s-103-2-222-3H451l-27-29c-15-16-25-31-22-34s99-8 214-11c114-2 210-7 213-9 2-3-4-14-14-25s-14-20-10-20c5 0-4-13-20-30-26-27-26-35-2-31l8 1-11-19-10-20 10-6 10-6v14c0 8 7 17 15 21l15 5v-9c0-6-4-10-9-10s-13-10-16-22c-3-13-11-35-17-51l-11-27-12 10-13 11 5-22 6-21-32 7-31 7v-33l-30-10c-33-12-36-19-18-37l11-11-25-38c-14-21-30-48-36-60l-12-22 22-21 22-20h-14c-7 0-11-2-8-5s17-1 31 4l25 10 7-7c10-10 49-8 57 3l8 10v-17c0-10-7-36-16-58l-16-40-17 10-18 9-10-10-11-11-143-1c-79-1-198 0-264 1l-120 4-18 10-18 9 12 15 11 14h64l12 13 13 12 117 2c64 1 132 5 150 8l32 6v69h19l-5 13c-5 15-67 40-104 43-14 1-43 6-65 12s-66 10-97 10l-58-1-13 12-14 11-30-67c-17-38-40-99-52-138-12-38-24-78-27-88l-6-19 39 3c21 1 62-3 91-10l52-13v-11c0-7-4-18-9-25l-8-13-39-9c-21-5-62-10-90-10H23l-7-37c-3-21-9-84-13-140l-6-103 49-2c52-2 83-4 99-9 6-1 15-3 20-4 6-1 23-7 38-13l28-12h154l26 14c50 26 166 45 324 52l109 5 9 12 8 12-6 40-6 40 14-19 14-19 6 23 6 22 11-7 11-7-1-32c-1-17-2-45-1-63l1-32 15-15c8-8 15-19 15-25s5-11 11-11h11l-6 28c-3 15-10 113-16 217-6 105-12 200-14 212l-3 22 8-5 9-5v14c0 7 12 25 28 39l27 27 30 7c17 4 39 13 50 20 11 8 27 14 37 14h17l-4 19-4 20 17 13 17 13-10-15c-5-9 0-4 13 10l22 25-5 13-5 13 11-6 10-7 34 36 33 35 6-15 6-16 14 11 13 11 6-7 7-6v25l16-6 16-6-6 15-6 15 23-11c12-6 19-8 15-5l-6 8 13 33 14 32-7 9c-4 5 0 3 8-3l14-13 20 18 19 17-24-33-24-33 25-19c14-10 40-22 59-25l34-6 7 11 8 12 5-13 5-14 7 18 8 18 11-23 12-23 19-2 20-3-22 10c-13 5-23 12-23 16v6l17-6 18-7-25 27c-14 15-19 24-12 20l12-7v43l23-7c12-4 41-8 65-9l43-2 9-14c5-8 6-19 4-25-3-5 2-1 10 9 9 11 16 26 16 34v13l-8-5-8-4-16 29c-18 30-12 38 11 17l14-13-6 17-6 17 15-6 14-5v33l8-5 8-5 2 25 2 24h-25l14 9 13 9-11 6-11 7 6 10 6 11 27-24 26-23-24 27c-13 15-27 25-31 23s-7 2-7 10v15h62l13-20 13-21-6-9-6-10h9c12 0 11-32-1-48l-11-14 15-9 14-9h-35l-1-27-1-28-7 25-7 25-7-34c-8-39-3-49 16-32l14 11 30-3c16-2 34-6 40-10l12-7 6 10 6 10h-14c-8 0-20 6-26 14l-12 15 19 10 19 10 22-6 22-6-2 9c-1 5 0 11 1 14s3 15 4 28l3 23-11-4-10-3-25 30c-26 31-51 71-51 81 0 4 6 3 13-1l12-8-15 19-15 19 19-7 19-7 13 11 14 11-6 9-5 9h19c11 0 25 7 32 15s19 15 28 15h15l-24-27c-13-14-18-23-11-19l12 7v-10c0-6-4-11-10-11-5 0-10-8-11-17l-1-18-5 13-5 12-11-7-10-6 6 16 6 17h-8c-5 0-13-6-19-12l-9-13 3-23c2-13 11-30 19-38l15-15 10 6c5 3 10 11 10 16v10l-12-7-11-7 7 11c11 17 15 15 26-13 10-27 27-34 27-10v14l-11-6-11-7 13 17 14 16-8 13c-12 18-12 30-2 51l9 18 10-6 9-6v8c0 14-23 40-42 46l-16 6-17-19c-20-22-34-22-53 0-8 8-11 11-9 5 3-5-1-16-9-23l-14-13v34l-25-23c-28-26-34-17-8 12l16 18h-34l-5 15-6 16-14-18-14-18-7 10c-5 6-19 18-33 26l-25 16-24-8-23-9 12-15 12-15h-14c-8 0-23 6-34 14l-19 14 8 8 7 7-17 20c-10 11-13 17-6 14l11-7 5 12 5 13 18-19 19-18-25 6-25 7 18-11 18-12 15 6 15 6-11 20-11 21-9-6c-5-3-11-1-15 5l-6 10h10c19 0 12 18-9 25l-20 6 5 9 6 9-30 16c-16 8-33 21-37 27l-8 13 17-14 17-13v9c0 11-33 43-43 43-4 0-7-6-7-14s-7-16-15-20l-15-5v8c0 5 6 12 13 14l12 5-16 1-17 1-13 21-14 20-40 5-40 5-41-21zm-28-145c-2-16-26-44-26-31 0 9 19 46 24 46 3 0 3-7 2-15zm25-38-12-12 7 18c3 10 9 15 12 12s0-11-7-18zm46 17c-3-3-12-4-19-1l-13 5 19 1c11 1 17-2 13-5zm-103-40c9-3 16-10 16-15 0-14-26-10-40 6l-12 15h10c6 0 17-3 26-6zm-154-59 12-15h-10c-5 0-12 7-16 15-3 8-4 15-2 15s9-7 16-15zm-50-34c0-5-7-11-14-14l-15-6 6 15c6 15 23 19 23 5zm443-11 25-20h25c32 0 87-20 87-31 0-5-7-9-15-9-9 0-18-6-21-14l-5-13-25 5-26 5 14 8 13 9h-30l15 11 15 11-23-5-22-5 6 9 5 9h-37l-24-22-23-22-20 25-19 24 16 3 16 4-6 10-7 11 22-6 22-5-12 14-11 14h9c6 0 22-9 36-20zm324-50c-1-3 4-15 11-27l12-22-10-6-10-6v42l-10-6-10-6 2 8c2 4-4 18-13 30l-16 23-8-8-8-7 7 13 7 12 24-17c13-10 23-20 22-23zm-509-20c-7-10-14-17-17-15-4 4 18 35 25 35 2 0-1-9-8-20zm390-9-12-20-8 6-9 5 12 14c6 8 15 14 20 14h9l-12-19zm-208-25c0-2-7-7-16-10l-15-6 6 10c6 10 25 14 25 6zm-65-19 13 5 13-24 12-23-15 12c-8 7-17 11-20 8s-13 5-24 17c-10 13-12 18-5 11l13-11 13 5zm-108-77 2-20h-15c-17 0-18 12-2 28 7 7 12 12 13 12 0 0 1-9 2-20zm173-10c0-12-17-12-45 0l-20 9h33l32 1v-10zm-484-252 7-11-11 7-12 7v-9c0-5-9-12-20-15-24-6-25-3-4 17 18 19 30 20 40 4zm64-12c0-3-4-8-10-11l-10-6v10c0 6 5 11 10 11 6 0 10-2 10-4zm-140-36c0-5-6-12-12-16l-13-7 7 8 8 8-12 14-11 13 17-6c9-3 16-10 16-14zm37-6c-3-3-12-4-19-1l-13 5 19 1c11 1 17-2 13-5zm-27-24c0-5-10-15-22-21l-23-12 19 22c21 23 26 26 26 11zm-129-320h9v-20c0-25-6-25-56-1l-39 19 25 5c14 2 31 3 38 1 8-2 18-4 23-4zm895 1099c3-6 20-17 38-25 17-7 25-13 19-14h-13l20-20c25-25 29-25 22 2l-5 21 13-8 13-8-7 12-7 11-11-6-10-7 6 21 7 20-23 6c-13 3-33 6-46 6h-23l7-11zm64-9 15-10h-15c-8 0-22 5-30 10l-15 10h15c8 0 22-5 30-10zm-1070-40c0-5 7-10 15-10s15 5 15 10c0 6-7 10-15 10s-15-4-15-10zm966-47-7-18 12 12c7 7 10 15 7 18s-9-2-12-12zm207-25-2-23 13 17 13 17 23-6 23-6-7 11-7 12h-55l-1-22zm115-65c7-3 16-2 19 1 4 3-2 6-13 5l-19-1 13-5zm-17-69c-1-6 5-17 12-23l14-11v15c0 8-4 12-8 9-4-2-10 2-12 8l-5 13-1-11zm1-40c10-10 20-16 22-13 3 3-5 11-17 18l-22 13 17-18zm90-74c14-43 18-49 18-24 0 11-7 29-15 40l-15 19 12-35zm139-133-11-14 6-17c3-9 12-16 20-16s14-4 14-10c0-5-7-10-15-10s-15-4-15-8c0-17 13-20 36-10l24 11v44l-23 22-24 22-12-14zm34-27 6-10h-10c-6 0-11 5-11 10 0 6 2 10 4 10 3 0 8-4 11-10zm-317 0-27-8-7 7c-4 3-3-1 2-9s9-17 9-20c1-3 4-15 9-27l7-23 13 12c7 7 13 18 13 25v13l-21-6-20-7 29 26c33 29 33 29-7 17zm72-11v-10l10 6c6 3 10 8 10 11 0 2-4 4-10 4-5 0-10-5-10-11zm-780-63c0-8 4-17 9-20l9-6-5 20c-6 23-13 26-13 6zm740-45c0-11-5-23-10-26l-10-6 6-11 7-11-26 5-26 5 5-8c3-5 11-9 17-9h12l23-42c12-24 22-51 22-60 0-18 33-58 48-58 4 0 22 14 41 31l35 30 12-5 13-5 6 9c8 13 25 13 25 0 0-5-7-10-15-10h-14l6-17 6-16-11 7-11 6-6-10-6-10h10c5 0 16 3 25 6l16 6-6 9-5 9h22l-2 18c-1 9 1 25 6 35 10 25 1 31-19 12-9-9-16-13-16-8s5 14 12 21c21 21 2 23-22 2l-23-20-8 6-9 5-1-18-1-18-12 27-12 28-15-16-16-15-1 13c-1 20-31 95-32 80v-13l-16 16-16 16 6 14 5 15h-19v-19zm165-141c-3-5-11-10-16-10h-10l6 10c3 6 11 10 16 10h10l-6-10zm-669 83c-3-4-6-15-6-25v-18h14c8 0 18 5 22 12l7 11-14-8-14-9 13 16 13 16-15 5c-8 3-17 3-20 0zm-984-38v-30l5 18c2 9 2 23 0 30l-5 12v-30zm1438-35c0-5 4-10 9-10 6 0 13 5 16 10l6 10h-15c-9 0-16-4-16-10zm40-10c0-5 5-10 11-10h10l-6 10c-3 6-8 10-11 10-2 0-4-4-4-10zm150-40c0-5 5-10 10-10 6 0 10 5 10 10 0 6-4 10-10 10-5 0-10-4-10-10zm-1124-105-46-36v-35h38l-5 13-5 12 23-4c12-3 71-7 130-10l107-5v50l-22 5c-11 2-46 10-76 16-30 7-61 12-67 11l-13-3v11c0 17-15 11-64-25zm570 23c-9-5-16-16-16-24v-15l20 11c10 6 23 10 27 9 19-3 31 2 36 14l5 14h-28c-16 0-36-4-44-9zm-359-112-6-16h-39c-22 0-54-3-71-6l-32-7-10-19-11-20 21 11c24 13 31 14 31 2 0-5-11-12-25-15-14-4-25-11-25-16v-10h29c16 0 38-3 48-7l18-7-12 16-13 15 7 6c12 13 23 7 23-12v-19l16-6 16-6 11 7c7 5 21 9 32 9 11 1 27 2 36 3 8 0 24 8 35 16l19 15-15 10-15 10h55v10c0 15-41 38-81 45l-36 7-6-16zm13-30c0-2-18-6-40-8l-40-4v16h40c22 0 40-2 40-4zm50-42c0-2-7-4-15-4s-15 4-15 10v9l15-5c8-4 15-8 15-10zm343 68-13-8 16-22 15-22 22 1 22 1-20 5c-11 3-23 8-27 12l-7 6 9 15 9 15 14-19 14-19 9 15c5 9 18 18 29 21l20 5-50 1c-27 0-56-3-62-7zm-324-119-14-18 18 14c16 13 21 21 13 21-2 0-10-8-17-17zm-40-173c-8-22 1-48 18-55l16-5-11 12c-5 7-12 24-14 38l-4 25-5-15zm229-22 12-12 12 12 12 12h-48l12-12zm-179 0c-1-2-3-13-4-25l-2-23h8c4 0 20 5 34 10l27 10-12 15c-10 12-47 21-51 13zm-1075-77c-2-2 8-14 22-26l27-23-7-35-7-36-11-3-12-4 10-34 10-34 37-9 37-9 33 15c41 19 95 35 129 39l26 3 21-19 21-19v-35l-21-5-21-6 7-10 6-11-23-2c-13-1-67-2-121-2l-99-1-19-24-19-23 35-27 34-26 1-22v-21l-37-12c-21-6-52-18-70-26-17-8-35-14-41-14-5 0-15-7-22-15l-12-14 43-81c90-169 245-345 414-473l90-67 127-65 126-64 99-30c54-17 139-38 188-48l90-17 170-1h170l100 19c258 48 519 172 708 335l58 51-23 9c-13 6-59 25-103 44s-94 39-110 46l-31 12-21 47c-12 26-29 70-38 99l-16 52-27 29c-33 36-119 102-134 102h-11l6-62c4-35 13-81 21-103l15-40 1-57v-57l-35-35c-19-20-35-40-35-47 0-28-239-233-286-245-14-4-58-4-97-2l-72 5-75 32c-41 18-98 49-126 68l-51 35-69 99c-38 55-78 115-89 132l-20 32-4 152-3 153-10-6-9-6-14 12-14 12-98-2c-54-1-117-2-140-1l-43 1v30l13 2c6 1 63 2 124 3h113v-15l24 6 23 5 6-15c4-9 11-16 16-16h9l4 36 4 35-13 17-13 17 7-34 6-34-14 5c-8 2-20 17-27 32-8 15-20 30-28 33l-14 5v22c0 11 4 27 9 34l8 14 22-36c32-51 37-45 7 7-14 23-32 62-41 86l-15 44-23 16c-12 9-33 22-47 29l-25 14-141-1c-77 0-148-3-157-7l-17-6-33 13c-17 7-35 17-39 23l-6 10-60 4-59 4-7-11c-4-6-11-11-17-11h-9v59l-32 5c-34 6-87 4-94-3zm1052-132c-33-5-64-13-69-18l-8-8 25-7 26-6 18 9c9 5 46 12 82 17l65 7-25 8c-31 9-41 9-114-2zm-26-379c46-39 92-60 127-59l28 1-45 15c-25 9-64 29-88 44-56 37-67 37-22-1zm1132-167-13-5 12-14 11-14 142 2 141 1-90 7-90 7-22 11c-22 12-67 15-91 5z"/></g><g fill="#1c1611" transform="matrix(.1 0 0 -.1 0 300)"><path d="M1365 2823c-42-22-68-51-71-79l-2-24h19l-5-9-6-9 25 2c14 0 25 5 25 9v8l9-5 9-6-6-22-5-21 21 5 22 6 5-8 5-8-18-7c-9-3-18-6-20-5-3 1-32-27-32-32 0-4 26-8 60-10 20-2 40-23 40-42v-16h44l-20 16-19 15 15-7c8-4 22-13 32-21l16-14 7 10c3 6 4 11 0 11-3 0-1 10 6 21l11 22-13 9-14 9 20-3 20-3-2 22c-2 13 1 22 5 22 4-1 11-1 16 0l8 1-12 15-12 15h73l-6 10-6 10-10-5-9-6v10c0 6-7 11-15 11h-15v-25l-8 13-9 13-16-6-16-7 5 24 5 23-15-19-15-18-11 7-12 7 5 18 5 19-19 20-18 20 12 5 12 4-15 11c-21 15-50 13-85-6zm79-118c-3-8-9-14-12-13-4 0-9-1-12-2s-13-3-22-5l-18-3v27l14-5 14-5 7 10c3 6 13 11 20 11h14l-5-15zm-318-36 5-9h-9c-5 0-12-9-15-20l-5-19 15-18 15-18-6 20-6 20 16-20c8-11 20-19 26-17l11 3-11-14-12-14 17-14 16-14-5 15-5 15 13 27 14 27-2 25c-3 30-13 33-27 9l-10-18-1 16v17l-20 5-20 5 6-9zm-40-35c-8-20-8-24 2-24 4 0 8 9 9 20 2 24-3 26-11 4zm125-6c-10-28-9-30 13-22l16 6v38h-10c-6 0-14-10-19-22zm-266-33c-39-16-65-46-106-122l-34-61 18-19 17-20-20-23c-11-13-20-30-19-39l1-16 5 13c2 6 9 12 14 12 13 0 11-38-3-46l-11-7 8 14c16 28-47-36-66-67l-19-32-33-6-32-6v-47l16 4 17 5 6-11 7-11h-14c-8 0-22-9-31-19l-18-19 4-24 4-23 12 27 11 26 18 4c10 2 28 0 41-6l22-9-4-44-4-43h28v-27l1-28 15 20c9 11 22 29 30 40l15 20 9-15c5-8 11-19 13-25l4-10 7 7c4 3 9 13 10 22 1 8 11 25 22 37 10 12 14 20 8 16l-11-6 5 25 4 25 12-15 11-14 23 9c12 4 22 13 22 19 0 5 3 9 8 8 4-1 27 9 52 21 25 13 46 23 48 22 1 0 8-1 15-1h12l-14 9-15 10-16-9-15-8-39 19-40 19-8-12c-5-7-6-22-4-33l5-20-19 25-20 25-1 25c0 14-2 37-3 51l-2 27 18-3 18-4v24l10-15 10-15v22c0 12 4 24 10 28l9 6 21-41 21-40-10-19-10-18 7-8 7-8-20 7-20 7 12-12 12-12 15 12 14 12 6-10 6-9-12-5c-7-2 9-3 36-1 55 4 61 8 69 45l7 26-35 16-35 17 1 22 1 23 5-15c3-8 15-23 27-32l21-18h104l-5-15-6-15h11c6 0 11 4 11 8v8l29-2 28-2-1 32-1 31-20-1h-21l-2 23-2 22 18-6 17-6-12 13-12 13 15 12 16 11 8 44 8 45-9 17-10 18 26 12 25 11 7-6 7-7-20-16-19-15 22 11c12 5 25 15 28 20l6 10h-10c-6 0-11 5-11 11v10l13-7c6-4 2 3-11 15l-22 22-9-5-9-6-12 15c-7 8-17 15-22 15h-9l6-12c3-7-2-3-11 10-9 12-22 22-29 22h-13l-4-25c-6-30-5-30 18-8l17 17-7-21-6-20 15-13c8-7 15-16 15-21 0-14-30-10-47 6l-15 15-9-5-9-6v8c0 5-7 18-16 29-8 10-12 13-8 5s8-29 9-47l1-33-8 5c-4 3-8 12-8 19v14l-31 16-30 16 10-20c14-26 14-34-1-25-7 3 0-5 16-20l29-26h-22c-12 0-31 5-41 10l-20 10 7-17 7-18-17 14-17 14-7-6-6-7-14 12-14 11 3-14 3-14-12 3-13 2v-21l-10 6-10 6 5 9c3 5-1 22-9 38l-14 28 29 13 29 13-6 9-5 9h25l-15 15c-21 22-50 25-84 10zm8-64 4-18h-26l5 8c2 4 0 10-6 14-5 3-10 10-10 15v9l14-5c8-3 16-13 19-23zm-52-58 14-18-16 12-16 13-8-8-8-7 7 13c9 16 11 15 27-5zm83-15-7-11 31-27 32-27h-38c-20 0-43-2-51-4l-14-4-7 33-8 32 16-12 16-13-8 13-8 13 21 6 21 5-7 11-6 10 12-7 11-7-6-11zm183-175c24-37 10-36-27 2l-33 34 22-6 22-6 16-24zm-123-19 6-15-10 6c-6 3-10 10-10 16 0 14 7 11 14-7zm-214-31c-1-12-50-66-56-60-3 2 7 19 21 36 27 31 35 37 35 24zm40-32c0-5-7-12-16-15l-17-6 13 15c14 17 20 19 20 6zm-14-106c-9-9-16-13-16-8 0 12 22 34 28 28 2-2-3-11-12-20zm467 497 1-22 10 10 10 10-11 11-12 12 2-21zm276-9c-1-5-1-11 0-15 0-5-3-8-9-8h-10v-40h43l14-17 15-18-6 18c-6 19-5 20 18 11 9-3 16-10 16-16v-9l-11 6-10 7 13-23c7-13 14-25 15-27s11 1 22 8l22 11-7 10-6 11 20-11c26-14 35-14 27-1l-6 10h10c5 0 12-6 14-12l5-13 1 22 1 22-12 7-11 7 7-11 7-12h-21v18c0 10-6 30-12 45l-13 27h-35v-42l-17 7c-10 5-33 10-50 13l-33 4 6 9c3 5 3 9 0 9s-7-3-7-7zm104-108c-7-21-12-19-10 4l1 20 8-5 7-5-6-14zm-148 95c3-5 11-10 16-10h10l-6 10c-3 6-11 10-16 10h-10l6-10zm215-21v-20l10 6 9 6-6 14c-7 21-13 19-13-6zm-225-9-6-10 15 6c18 7 21 14 7 14-6 0-13-4-16-10zm-175-98c-14-15-28-34-32-44l-7-17 19 4 18 4 6-16c3-8 4-19 0-24l-5-9h9c5 0 12 11 14 25l5 25h-18l18 24 18 24 10-9c5-5 13-9 18-9h8l-6 10-6 10 15-6c8-3 18-15 22-27l6-20 10 18 10 17-28 24-29 23h-25l-25-1-25-26zm17-29c-9-9-19-14-23-11-10 10 6 28 24 28h16l-17-17zm177 16-5-9h25l-19-14c-11-8-23-12-27-10-5 3-8 0-8-5 0-6-5-10-11-8-6 1-13-3-16-10l-4-12 20-20c12-12 18-21 15-21-4 0-1-7 6-15l13-16-11-11-12-12v25l-30-16-30-16v-42l7 6 6 7 13-11 13-11 11 7c5 3 10 15 10 26v19h30l-2 13-3 12 15-2 15-3 10 22c6 12 17 24 25 26l15 5-12-14-11-14 11-15 12-16 33-1 33-1-18 13-17 13-16-6-15-6 12 15 12 15-8 13-9 14 5 29 5 30-13-7-12-8 6 10 7 11-13 9c-6 6-22 13-34 16l-23 5-6-9zm98-36-2-24 10 6c6 3 10 13 10 21v15l13-7 12-7-8 8c-4 5-13 10-20 11l-13 2-2-25zm74 13 6-16-15 6-15 5-6-9-6-10 14-5 14-6 17 13 17 12-16 13-16 14 6-17zm144-32c-12-32-13-44-1-44 5 0 18-3 28-7l18-7-17 18c-10 9-18 26-18 36v19l15-5c8-4 15-4 15-1s-7 8-15 11l-16 6-9-26zm-428-17 11-22-16 14-17 13-6-16-6-16-11 7-10 6 6-16 6-17h-9c-6 0-10-7-10-16v-16l17 13 17 14-9-15-9-15 33 28c18 15 39 27 47 27 19 0 18 19-1 26-8 4-13 9-11 13 3 4-4 8-15 8l-19 2 12-22zm209-6-13-8 11-7 11-7v13l1 13 10-19 11-18 9 13c15 25-11 38-40 20zm244-1c3-5 10-10 16-10 5 0 9 5 9 10 0 6-7 10-16 10h-15l6-10zm-435-60c0-13 11-13 30 0l15 10h-45v-10zm-35-20c-10-11-16-23-13-26 7-6 38 24 38 37s-5 11-25-11zm-499-48-5-9h28l-5 9c-3 4-7 8-9 8s-6-4-9-8zm234 3c0-8 29-12 39-5l13 8h-26c-14 0-26-2-26-3zm826-184-20-8 12-7 12-7-5-10-6-9 15-6 15-6-6-14-5-14h21l-6 28c-3 15-5 35-5 45 0 9 0 17-1 16-1 0-11-4-21-8zm154-51-15-10h12c6 0 15 5 18 10 8 12 4 12-15 0zm-1334-35c-3-9-6-40-7-68l-1-52-11 35c-19 63-47 63-47-1v-39h-21l5 23c3 12 3 16 0 9l-6-12-9 6c-12 7-11 2 2-33l10-27 9 14 10 15v-45l28-32c47-56 112-114 112-102 0 3-5 14-10 24-6 11-11 43-12 72l-1 53 21 64c22 65 28 103 11 66l-9-20 3 27 4 27-8-5c-5-3-9-13-9-23s-6-31-14-46l-14-27-7 44c-4 24-11 49-15 57l-7 13-7-17zm1204-18c0-8 7-17 15-21 8-3 15-3 15 0s-7 12-15 20l-15 15v-14zM891 1818c-5-13-6-27-3-33 3-5 6-23 6-40l1-30 11 2 10 2-4-30-4-29h21l-4 67-4 68-10 3c-6 2-11 8-11 13v10l10-6 10-6v10c0 5-5 13-10 16l-10 6-9-23zm231-12c-35-20-37-26-6-24 16 1 38-2 48-7l19-8-7 11-6 11 17 11 18 11-22-6-23-6v10c0 14-8 13-38-3zm38-117-44-9-21-22-20-21 25 15c14 8 37 18 53 22l27 6v-10c0-5 6-10 13-10h13v20c0 11 0 20-1 19 0-1-20-5-45-10zm67-19-5-20h8c4 0 10 9 13 20l5 20h-8c-4 0-10-9-13-20zm-68-23 9-9 23 4 24 4-33 5-33 6 10-10zm329-224c7-3 16-2 19 1 4 3-2 6-13 5l-19-1 13-5zm-168-12c0-5 7-12 16-15 24-9 28-7 14 9-14 17-30 20-30 6zm700-590c0-10 4-41 10-69l9-51 32-65 32-66-12-42-13-43-83-81c-45-45-115-105-155-133l-72-50-52-20-51-19-60 10c-73 11-151 42-251 99l-76 44-55 50-54 50-25 60c-39 94-44 115-44 197v78h-8c-14 0-39-32-47-60-4-14-23-63-42-110l-34-85-19-16c-11-9-65-33-122-54-124-44-258-105-258-116 0-17 148-112 263-170l118-59 97-29c53-17 138-38 187-48l90-17 170-1h170l100 19c257 48 532 178 704 333l54 49-131 55-131 54-30 65c-16 36-34 84-40 107l-11 42-53 44c-48 41-88 67-101 67-3 0-6-8-6-19zm191-293c1-7 1-18 0-25l-1-11 22 5 23 5-29-16c-33-19-31-19-39 15l-7 26 7 7c10 10 23 7 24-6zm-1-78c0-5-2-10-4-10-3 0-8 5-11 10l-6 10h10c6 0 11-4 11-10zm53-4 6-15-15 6-14 5v-33l10 6 10 6v-16c0-9-6-23-14-30l-13-14v84l11 7c14 10 13 10 19-6zM1605 62c-3-3-11 0-18 7l-12 12 18-7c10-3 15-9 12-12z"/></g></g></svg>